<?xml version="1.0" encoding="UTF-8"?>
<svg xmlns="http://www.w3.org/2000/svg" width="9pt" height="10pt" viewBox="0 0 9 10" version="1.1">
<g>
<path style=" fill: #fff;" d="M 2.972656 5.625 L 2.167969 5.625 C 2.035156 5.625 1.929688 5.519531 1.929688 5.390625 L 1.929688 4.609375 C 1.929688 4.480469 2.035156 4.375 2.167969 4.375 L 2.972656 4.375 C 3.105469 4.375 3.214844 4.480469 3.214844 4.609375 L 3.214844 5.390625 C 3.214844 5.519531 3.105469 5.625 2.972656 5.625 Z M 5.144531 5.390625 L 5.144531 4.609375 C 5.144531 4.480469 5.035156 4.375 4.902344 4.375 L 4.097656 4.375 C 3.964844 4.375 3.855469 4.480469 3.855469 4.609375 L 3.855469 5.390625 C 3.855469 5.519531 3.964844 5.625 4.097656 5.625 L 4.902344 5.625 C 5.035156 5.625 5.144531 5.519531 5.144531 5.390625 Z M 7.070312 5.390625 L 7.070312 4.609375 C 7.070312 4.480469 6.964844 4.375 6.832031 4.375 L 6.027344 4.375 C 5.894531 4.375 5.785156 4.480469 5.785156 4.609375 L 5.785156 5.390625 C 5.785156 5.519531 5.894531 5.625 6.027344 5.625 L 6.832031 5.625 C 6.964844 5.625 7.070312 5.519531 7.070312 5.390625 Z M 5.144531 7.265625 L 5.144531 6.484375 C 5.144531 6.355469 5.035156 6.25 4.902344 6.25 L 4.097656 6.25 C 3.964844 6.25 3.855469 6.355469 3.855469 6.484375 L 3.855469 7.265625 C 3.855469 7.394531 3.964844 7.5 4.097656 7.5 L 4.902344 7.5 C 5.035156 7.5 5.144531 7.394531 5.144531 7.265625 Z M 3.214844 7.265625 L 3.214844 6.484375 C 3.214844 6.355469 3.105469 6.25 2.972656 6.25 L 2.167969 6.25 C 2.035156 6.25 1.929688 6.355469 1.929688 6.484375 L 1.929688 7.265625 C 1.929688 7.394531 2.035156 7.5 2.167969 7.5 L 2.972656 7.5 C 3.105469 7.5 3.214844 7.394531 3.214844 7.265625 Z M 7.070312 7.265625 L 7.070312 6.484375 C 7.070312 6.355469 6.964844 6.25 6.832031 6.25 L 6.027344 6.25 C 5.894531 6.25 5.785156 6.355469 5.785156 6.484375 L 5.785156 7.265625 C 5.785156 7.394531 5.894531 7.5 6.027344 7.5 L 6.832031 7.5 C 6.964844 7.5 7.070312 7.394531 7.070312 7.265625 Z M 9 2.1875 L 9 9.0625 C 9 9.578125 8.566406 10 8.035156 10 L 0.964844 10 C 0.433594 10 0 9.578125 0 9.0625 L 0 2.1875 C 0 1.671875 0.433594 1.25 0.964844 1.25 L 1.929688 1.25 L 1.929688 0.234375 C 1.929688 0.105469 2.035156 0 2.167969 0 L 2.972656 0 C 3.105469 0 3.214844 0.105469 3.214844 0.234375 L 3.214844 1.25 L 5.785156 1.25 L 5.785156 0.234375 C 5.785156 0.105469 5.894531 0 6.027344 0 L 6.832031 0 C 6.964844 0 7.070312 0.105469 7.070312 0.234375 L 7.070312 1.25 L 8.035156 1.25 C 8.566406 1.25 9 1.671875 9 2.1875 Z M 8.035156 8.945312 L 8.035156 3.125 L 0.964844 3.125 L 0.964844 8.945312 C 0.964844 9.007812 1.019531 9.0625 1.085938 9.0625 L 7.914062 9.0625 C 7.980469 9.0625 8.035156 9.007812 8.035156 8.945312 Z M 8.035156 8.945312 "/>
</g>
</svg>
