<?xml version="1.0" encoding="UTF-8"?>
<svg xmlns="http://www.w3.org/2000/svg" xmlns:xlink="http://www.w3.org/1999/xlink" width="18pt" height="18pt" viewBox="0 0 18 18" version="1.1">
<g id="surface1">
<path style=" stroke:none;fill-rule:nonzero;fill:rgb(0%,0%,0%);fill-opacity:1;" d="M 16.601562 5.472656 C 16.148438 3.207031 14.535156 1.746094 12.460938 1.746094 C 11.304688 1.746094 10.046875 2.222656 8.820312 3.125 C 7.578125 2.199219 6.320312 1.71875 5.148438 1.71875 C 3.074219 1.71875 1.449219 3.195312 1.007812 5.488281 C 0.355469 8.882812 2.457031 13.40625 8.613281 15.863281 C 8.683594 15.890625 8.75 15.902344 8.820312 15.902344 C 8.882812 15.902344 8.953125 15.890625 9.023438 15.863281 C 15.167969 13.351562 17.253906 8.847656 16.601562 5.472656 Z M 8.820312 14.742188 C 3.414062 12.503906 1.542969 8.597656 2.101562 5.695312 C 2.429688 3.957031 3.628906 2.824219 5.148438 2.824219 C 6.171875 2.824219 7.316406 3.316406 8.464844 4.257812 C 8.667969 4.421875 8.953125 4.421875 9.160156 4.257812 C 10.304688 3.34375 11.4375 2.867188 12.460938 2.867188 C 13.976562 2.867188 15.167969 3.96875 15.507812 5.695312 C 16.066406 8.570312 14.210938 12.460938 8.820312 14.742188 Z M 8.820312 14.742188 "/>
</g>
</svg>
